<svg>
    <path d="M222.642 37.0656c-1.539 1.584-3.4884 2.5344-6.0534 2.9304-3.8988.4752-10.6704 2.772-11.1834 3.7224-.2052.396-.9234.6336-1.6416.6336-.6156 0-2.052.792-3.078 1.6632-1.4364 1.3464-1.7442 2.5344-1.2312 5.148.513 3.0888.2052 3.6432-3.078 6.1776-3.2832 2.5344-4.104 2.772-7.7976 2.4552-3.7962-.396-4.617-.0792-8.6184 2.772-2.4624 1.7424-4.8222 3.168-5.2326 3.168-1.9494-.0792-5.4378-3.168-5.4378-4.752 0-1.4256-.4104-1.6632-2.2572-1.2672-1.3338.2376-2.8728.4752-3.591.4752-.6156 0-2.565 1.1088-4.3092 2.4552-2.6676 2.0592-3.1806 3.0096-3.1806 6.336 0 5.4648-1.9494 5.8608-8.0028 1.4256-13.0302-9.504-12.5172-9.1872-13.851-7.4448-.7182.8712-1.4364 2.4552-1.7442 3.564-.8208 3.0096-4.617 3.0888-6.5664.1584-.8208-1.2672-1.2312-2.5344-.9234-2.8512.7182-.5544-2.6676-2.772-4.4118-2.8512-.6156 0-1.7442 1.188-2.565 2.5344-.8208 1.4256-2.6676 3.0888-4.2066 3.6432-1.9494.7128-2.8728 1.6632-2.8728 2.8512 0 1.1088-1.026 2.376-2.565 3.168-1.4364.7128-2.565 1.8216-2.565 2.4552 0 .6336-.4104 1.188-.9234 1.188-2.3598 0-7.3872-2.9304-8.6184-4.9896-.6156-1.188-2.2572-2.376-3.4884-2.6136s-2.9754-1.1088-4.0014-1.98c-.9234-.792-2.565-1.5048-3.591-1.5048s-2.1546-.396-2.4624-.8712c-.4104-.396-1.2312-.6336-1.8468-.4752-.7182.2376-2.3598-.396-3.6936-1.3464-1.8468-1.2672-2.565-1.4256-2.9754-.5544-.2052.5544-1.3338 1.7424-2.3598 2.5344-1.1286.8712-1.9494 1.98-1.9494 2.6136 0 .5544-1.6416 2.6136-3.591 4.5144-1.9494 1.9008-3.591 3.96-3.591 4.4352 0 .5544-1.1286 1.0296-2.565 1.0296-1.6416 0-2.565.4752-2.565 1.2672 0 1.6632 3.8988 6.6528 5.2326 6.6528 1.6416 0 13.2354 9.6624 13.2354 11.088 0 .792 1.026 1.584 2.4624 1.9008 2.7702.5544 4.3092 3.0096 5.2326 8.5536.513 2.8512 1.026 3.8016 2.3598 3.8016 3.2832 0 6.3612-2.2968 6.3612-4.8312 0-1.2672.513-2.2968 1.026-2.2968.6156 0 1.026 1.0296 1.026 2.376 0 1.98.4104 2.376 2.4624 2.376 1.3338 0 2.8728.4752 3.4884 1.0296 1.539 1.4256.6156 6.0984-1.4364 7.2864-1.1286.6336-1.8468 2.2968-2.052 4.752-.2052 2.6136-1.026 4.356-2.565 5.6232l-2.2572 1.9008h2.2572c1.2312 0 2.4624.6336 2.7702 1.3464 1.539 3.564 3.7962 6.732 5.0274 7.128.8208.1584 2.7702 2.2176 4.4118 4.5144 2.8728 3.8808 3.3858 4.1184 10.26 5.7024 5.13 1.188 7.5924 1.4256 8.4132.792.7182-.5544 1.539-.3168 2.6676.9504.8208.9504 2.3598 1.7424 3.3858 1.7424s3.078.7128 4.5144 1.584 2.9754 1.584 3.4884 1.584c.4104 0 1.9494-1.7424 3.2832-3.8016 1.7442-2.9304 3.3858-4.1184 6.3612-5.148 2.2572-.7128 4.7196-1.3464 5.643-1.3464s2.4624-.792 3.3858-1.7424l1.8468-1.6632 4.617 1.6632c2.4624.9504 5.0274 1.7424 5.5404 1.7424s2.4624 1.4256 4.4118 3.168 4.3092 3.168 5.2326 3.168c1.026 0 2.052.5544 2.4624 1.188.3078.6336 1.7442 1.584 3.1806 2.1384 1.4364.4752 2.565 1.3464 2.565 1.98 0 1.98-3.2832 4.9896-5.5404 4.9896-2.3598 0-6.7716 2.0592-6.7716 3.168 0 1.0296 6.156 2.376 8.721 1.9008 1.6416-.3168 3.4884.1584 5.5404 1.3464 3.078 1.7424 4.2066 3.8808 2.1546 3.8808-1.6416 0-1.2312 2.9304.4104 3.4056.8208.2376 3.078.3168 4.9248.0792 5.0274-.5544 9.0288 2.8512 9.0288 7.6032 0 1.8216-.4104 2.376-1.9494 2.376-1.1286 0-3.3858.8712-4.9248 1.9008-2.2572 1.584-2.6676 2.1384-1.539 2.9304 1.539 1.2672 1.6416 3.8808.1026 3.8808-2.052 0-7.182 3.3264-8.1054 5.2272-.7182 1.4256-1.7442 1.9008-4.0014 1.9008-3.2832 0-8.3106-1.4256-8.3106-2.376 0-.3168-3.078-.4752-6.8742-.3168-3.8988.1584-8.5158.3168-10.26.3168-2.6676 0-3.3858.3168-3.3858 1.584 0 .792.9234 1.9008 2.052 2.376s2.052 1.3464 2.052 1.98c0 1.9008-2.3598 5.148-3.6936 5.148-.8208 0-2.8728 1.0296-4.7196 2.2968l-3.3858 2.2968 2.565 1.6632c1.4364.8712 3.4884 1.584 4.5144 1.6632 3.591 0 8.8236 1.9008 9.3366 3.2472.3078.792 2.1546 1.8216 4.104 2.2968s4.5144 1.7424 5.8482 2.772c1.3338 1.1088 3.078 1.98 4.0014 1.98.8208 0 2.8728 1.1088 4.5144 2.376 4.0014 3.2472 10.4652 6.0984 15.39 6.732 2.2572.3168 4.617.8712 5.13 1.188.6156.3168 3.2832 1.0296 5.9508 1.6632 2.7702.5544 5.643 1.6632 6.4638 2.4552 1.4364 1.188 1.4364 1.4256-.513 2.9304-2.565 1.98-2.8728 6.5736-.6156 7.9992.9234.5544 2.3598 2.2176 3.1806 3.6432 1.026 1.584 2.6676 2.9304 4.104 3.168 1.3338.2376 2.4624.9504 2.4624 1.5048s.7182 1.4256 1.539 1.98c1.3338.8712 1.8468.792 2.8728-.3168 1.6416-1.6632 4.8222-.8712 4.8222 1.188 0 .792.9234 1.9008 2.052 2.4552s2.052 1.4256 2.052 1.9008.7182 1.3464 1.6416 1.98 1.3338 1.6632 1.026 2.772c-.8208 2.2968 4.5144 8.9496 10.8756 13.5432 2.565 1.9008 5.9508 4.9104 7.4898 6.5736 4.0014 4.5144 13.4406 9.9792 15.1848 8.7912 1.7442-1.1088 2.7702-.3168 2.7702 2.0592 0 1.0296.4104 1.8216.8208 1.8216.513 0 1.9494 1.6632 3.2832 3.7224 2.7702 4.356 3.8988 5.148 6.4638 4.5144 1.539-.396 1.7442.2376 1.7442 6.4152 0 6.5736.1026 6.9696 2.9754 9.0288 1.9494 1.4256 2.8728 2.772 2.565 3.7224-.2052.792.6156 2.376 1.7442 3.4848l2.1546 1.98 2.7702-2.6136c3.4884-3.0888 5.2326-3.2472 5.2326-.3168 0 3.4056 4.7196 6.9696 10.0548 7.6824 3.7962.4752 4.3092.792 4.3092 2.6928 0 2.4552 1.6416 4.0392 4.104 4.0392.9234 0 2.565.7128 3.6936 1.6632 1.4364 1.2672 2.7702 1.584 5.2326 1.2672 2.9754-.396 3.3858-.2376 3.3858 1.2672-.1026 3.8016-2.565 6.336-6.669 7.2864-2.8728.5544-4.5144 1.5048-5.4378 3.0888-1.3338 1.98-1.2312 2.2968.7182 3.4056 1.2312.6336 1.9494 1.4256 1.6416 1.8216-.3078.396.3078 1.1088 1.3338 1.5048 1.1286.4752 2.565 1.9008 3.2832 3.2472.8208 1.5048 2.2572 2.6136 4.0014 2.9304 3.7962.7128 12.4146 7.9992 12.4146 10.5336 0 1.0296-.8208 3.4848-1.7442 5.3064-1.4364 2.6928-2.4624 3.4056-5.13 3.8016-4.3092.6336-4.3092 1.8216-.1026 4.5144l3.3858 2.0592-2.2572 1.9008c-1.9494 1.6632-2.1546 2.2968-1.3338 4.5144.513 1.5048.6156 3.2472.1026 3.96s-1.1286 2.8512-1.539 4.752c-.4104 2.1384-1.6416 4.2768-3.1806 5.4648-1.7442 1.3464-2.565 2.8512-2.565 4.6728 0 1.4256-.6156 3.4848-1.4364 4.4352-2.1546 2.5344-.9234 6.8112 2.052 7.6824 2.4624.792 2.8728 1.6632 2.4624 5.7816-.1026 1.3464.6156 2.6928 1.9494 3.564 2.9754 1.9008 5.4378 7.6824 5.9508 13.6224.4104 4.356 0 6.0192-2.6676 11.088-3.591 6.6528-4.0014 10.7712-1.4364 14.4936 1.8468 2.772 2.3598 14.256.9234 18.216-.8208 2.1384-5.8482 6.8904-7.2846 6.8904-.4104 0-1.539-.792-2.4624-1.7424-1.7442-1.584-2.1546-1.6632-6.4638-.7128-3.2832.7128-5.13 1.6632-6.3612 3.4056-2.7702 3.564-10.6704 7.128-14.5692 6.5736-2.565-.3168-3.4884 0-5.4378 2.0592-2.3598 2.4552-2.3598 2.4552-9.4392 1.9008l-6.9768-.5544v3.4848c0 1.8216-.1026 4.1184-.2052 4.9896-.1026.8712.2052 2.2176.6156 3.0096.6156 1.188.2052 1.3464-3.6936 1.1088-2.4624-.0792-5.5404-.6336-6.7716-1.188-1.2312-.5544-3.3858-.9504-4.8222-.9504s-2.8728-.396-3.1806-.792c-1.2312-1.5048-3.4884-.792-5.13 1.5048-1.1286 1.7424-2.3598 2.4552-4.8222 2.6136-3.591.2376-5.3352 2.6136-2.7702 3.8016.8208.4752 1.2312 2.4552 1.1286 6.0192-.1026 5.7816 1.7442 9.0288 5.0274 9.0288 1.026 0 2.6676 1.0296 3.6936 2.376 1.1286 1.584 2.565 2.376 4.104 2.376 3.2832 0 4.8222 3.0096 2.565 4.9896-1.4364 1.2672-1.4364 1.584.1026 3.6432 2.052 2.6136 1.4364 3.2472-2.8728 3.2472-2.1546 0-4.104-.7128-5.7456-2.0592-2.1546-1.8216-2.565-1.8216-3.591-.7128-1.026 1.0296-1.7442 1.1088-3.3858.396-1.2312-.4752-2.1546-1.3464-2.1546-1.9008 0-.6336-.8208-1.9008-1.9494-2.9304-1.8468-1.8216-1.9494-1.8216-7.2846-.4752-2.9754.7128-6.8742 1.3464-8.8236 1.3464-2.1546 0-4.104.6336-5.4378 1.6632-1.8468 1.584-2.4624 1.6632-8.5158.792-3.591-.4752-6.5664-1.188-6.7716-1.6632s-.8208-.6336-1.3338-.3168c-1.4364.6336-1.1286 4.1184.7182 6.2568 1.539 1.8216 1.4364 1.98-2.8728 4.356-2.3598 1.3464-5.3352 3.564-6.3612 4.9104-2.052 2.376-2.052 2.4552-9.1314 1.9008l-6.9768-.4752-3.1806 2.6928c-1.7442 1.584-3.6936 2.5344-4.5144 2.2968-.8208-.2376-.3078.9504 1.3338 2.8512 1.4364 1.7424 3.078 3.2472 3.591 3.2472.4104 0 .8208.5544.8208 1.2672 0 .6336.513 1.9008 1.1286 2.772 1.026 1.5048 1.026 1.5048 3.6936-.0792 3.8988-2.376 6.156-1.98 9.0288 1.6632 2.1546 2.5344 2.9754 3.0096 4.104 2.2968 2.1546-1.3464 5.5404-.2376 7.7976 2.6136 2.4624 3.168 2.4624 3.7224.1026 3.7224-1.1286 0-2.7702.7128-3.7962 1.584s-2.565 1.7424-3.591 1.98c-.9234.2376-2.3598 1.4256-2.9754 2.5344-1.2312 2.0592-3.078 19.9584-3.4884 34.2144-.2052 6.5736-.1026 6.732 2.3598 7.2072l2.565.4752-2.8728 1.4256c-1.539.792-2.7702 1.9008-2.7702 2.5344 0 .5544-.8208 1.3464-1.7442 1.8216-2.9754 1.2672 3.2832 2.6928 9.3366 2.1384 4.104-.3168 5.9508-1.0296 9.234-3.4848 2.3598-1.6632 5.9508-3.8808 8.0028-4.9104 2.2572-1.188 4.617-3.4056 6.0534-5.7024 1.2312-2.0592 3.4884-4.5936 4.9248-5.7024 3.3858-2.5344 17.442-7.6032 29.1384-10.4544 6.3612-1.584 8.9262-2.6136 8.8236-3.4848-.3078-2.4552.2052-3.2472 2.565-4.0392 1.3338-.4752 2.7702-1.6632 3.078-2.5344.513-1.5048.6156-1.5048 3.078-.3168 3.591 1.9008 5.7456 1.6632 9.0288-.792 2.8728-2.1384 3.8988-6.0192 1.8468-6.9696-1.6416-.792-1.2312-3.564.513-3.564.8208 0 1.539.3168 1.539.792 0 1.5048 1.9494.792 3.7962-1.2672 1.3338-1.6632 1.4364-2.376.513-3.564-1.026-1.188-.9234-1.8216 0-3.0888.7182-.8712 1.8468-1.584 2.4624-1.584 2.6676 0 3.6936-2.4552 3.591-9.0288L302.67 590.832l2.4624.8712c3.078 1.1088 7.9002.3168 7.182-1.1088-.2052-.5544.4104-1.7424 1.6416-2.5344 2.052-1.4256 2.052-1.4256 2.052.2376 0 .8712.4104 1.8216.9234 2.0592.513.2376.7182 1.188.4104 1.98-.7182 2.1384 1.3338 2.772 4.0014 1.3464 1.2312-.7128 3.2832-1.2672 4.5144-1.2672 1.1286 0 2.9754-.6336 3.8988-1.5048.9234-.792 3.4884-1.6632 5.643-1.98 2.1546-.2376 5.0274-1.1088 6.3612-1.9008 7.2846-4.1976 17.3394-8.0784 21.2382-8.0784 3.7962 0 4.104-.1584 5.2326-3.0888 1.9494-5.148 4.0014-6.5736 10.3626-6.8112 4.3092-.1584 5.9508-.6336 6.9768-1.9008.8208-.9504 2.565-1.6632 3.8988-1.6632 1.4364 0 2.8728-.7128 3.591-1.8216 1.8468-2.772 5.2326-4.5144 8.9262-4.5144 2.8728 0 3.591-.396 4.5144-2.4552 1.1286-2.6136 5.0274-4.1976 8.1054-3.4848 3.6936.9504 6.0534-.3168 6.0534-3.0888 0-1.5048.3078-3.8016.6156-5.148.513-1.98 1.1286-2.4552 3.3858-2.4552 2.1546 0 3.1806-.7128 5.13-3.6432 2.6676-3.7224 2.1546-6.2568-1.026-6.2568-2.1546 0-2.3598-2.772-.2052-3.96 2.4624-1.5048 3.3858-1.4256 3.3858 0 0 .6336.513 1.188 1.026 1.188 1.6416 0 1.2312-2.1384-1.026-5.6232-1.2312-1.7424-1.8468-3.564-1.4364-4.0392 1.3338-1.6632 1.1286-8.8704-.3078-11.088-1.6416-2.6136-.2052-3.564 2.2572-1.4256 1.6416 1.3464 4.617 2.2176 4.617 1.2672 0-.5544-2.565-4.1184-4.7196-6.4152-1.6416-1.7424-1.9494-2.8512-1.3338-4.1976 1.2312-2.4552 10.9782-9.9 12.2094-9.2664.6156.2376 1.026-.0792 1.026-.7128 0-1.6632-5.4378-8.3952-6.7716-8.3952-.6156 0-1.2312-1.6632-1.3338-3.7224-.1026-2.0592-.6156-3.96-1.1286-4.1976-.6156-.3168-.8208-1.188-.4104-1.9008.4104-.792.2052-1.6632-.3078-1.98-1.539-.7128-2.565-4.6728-1.3338-5.2272.6156-.2376 1.539.3168 2.052 1.3464.8208 1.4256.9234 1.1088.513-1.7424-.3078-1.9008-1.3338-4.1184-2.1546-4.8312-2.052-1.7424-1.2312-6.732 1.026-6.4152 1.3338.1584 1.539-.3168 1.026-2.376-.3078-1.4256-.9234-3.3264-1.4364-4.1976-.9234-1.6632-2.052-6.2568-2.1546-8.4744 0-.792-.4104-1.584-1.026-1.8216-.513-.3168-.9234-1.5048-.9234-2.6928s-.7182-2.8512-1.539-3.7224c-.8208-.792-1.539-2.6136-1.539-3.8808 0-1.3464-.7182-3.2472-1.539-4.356s-1.4364-3.4056-1.539-5.148c0-1.7424-.8208-4.2768-1.8468-5.544-2.8728-3.564-6.5664-12.9888-6.8742-17.028-.3078-5.7816-3.1806-9.6624-7.9002-10.6128-1.9494-.3168-2.8728-1.0296-2.8728-2.0592s-.9234-1.7424-2.565-2.0592c-3.8988-.7128-12.825-10.8504-12.825-14.4936 0-.8712-.9234-1.7424-2.052-2.0592-2.8728-.7128-7.3872-6.0984-6.5664-7.7616.3078-.792 1.4364-1.3464 2.3598-1.3464 1.3338-.0792 1.3338-.1584-.3078-.9504-1.539-.6336-2.1546-.5544-2.8728.4752-.513.7128-1.6416 1.2672-2.4624 1.2672-2.052 0-2.9754-2.1384-1.4364-3.564 1.026-.8712.6156-1.188-2.052-1.7424-1.7442-.396-3.078-.792-2.9754-1.0296.7182-1.188-2.565-3.96-4.7196-3.96-1.6416 0-4.7196-1.6632-9.0288-4.6728-3.591-2.6136-7.695-4.9896-9.234-5.2272-1.539-.3168-2.7702-.8712-2.7702-1.2672s-1.9494-1.6632-4.3092-2.8512c-2.4624-1.188-8.0028-4.8312-12.312-8.0784-6.156-4.5936-8.0028-6.4944-8.0028-8.1576 0-1.584-.8208-2.4552-2.8728-3.3264-1.6416-.6336-3.591-1.7424-4.4118-2.5344-.7182-.7128-3.1806-2.1384-5.2326-3.168-12.5172-6.0984-26.2656-24.7104-21.2382-28.5912.9234-.7128.6156-1.8216-1.026-4.5144-1.1286-1.98-2.6676-3.6432-3.2832-3.6432-.7182 0-3.1806-1.4256-5.643-3.168s-5.8482-3.4056-7.5924-3.6432c-2.8728-.4752-10.26-5.3856-10.26-6.8904 0-.396-1.026-1.3464-2.3598-2.1384-1.2312-.792-3.3858-3.8808-4.8222-6.8112-1.3338-3.0096-2.9754-5.7816-3.7962-6.0984-.7182-.3168-1.3338-1.1088-1.3338-1.7424s-1.2312-1.98-2.6676-3.0096c-3.3858-2.4552-3.2832-7.6032.4104-8.8704 1.539-.5544 2.2572-1.4256 2.2572-2.9304 0-1.1088 1.2312-3.168 2.6676-4.5144 2.052-1.9008 2.3598-2.6928 1.539-3.8808-1.6416-2.2968.4104-10.6128 3.7962-15.7608 1.6416-2.5344 3.3858-5.7816 3.6936-7.128.8208-2.6928 3.8988-4.1184 6.0534-2.8512 2.4624 1.4256 4.3092.5544 8.6184-3.8808 5.643-5.7024 9.5418-7.8408 15.2874-8.3952l4.617-.396-.4104-7.0488-.3078-7.0488 3.3858-2.376c1.8468-1.2672 3.3858-2.6928 3.3858-3.0888s.9234-.8712 1.9494-1.188c1.6416-.396 1.8468-.8712 1.026-2.9304-1.1286-3.2472-.2052-4.1976 2.7702-2.6928 3.2832 1.6632 3.4884 1.584 2.565-.9504-1.026-2.6136.4104-3.96 5.0274-4.6728 1.7442-.2376 3.3858-.792 3.6936-1.1088 1.026-1.2672 3.2832-.7128 3.7962.8712.7182 2.1384 5.4378 2.1384 6.8742.0792.513-.8712 2.2572-1.6632 3.7962-1.8216 3.1806-.2376 4.104-2.0592 4.3092-7.9992.1026-3.168.4104-3.7224 2.052-3.7224 1.1286 0 2.3598-.396 2.7702-.8712.3078-.4752 1.6416-.6336 2.8728-.396 2.565.4752 4.104-.1584 5.0274-2.1384.4104-.792 2.052-1.8216 3.7962-2.2176 1.8468-.5544 3.2832-1.584 3.6936-2.6928.513-1.7424 2.9754-2.772 6.8742-2.772 1.1286 0 1.7442.6336 1.7442 1.7424 0 1.0296.3078 1.4256.8208.9504.4104-.4752 2.052-1.1088 3.591-1.4256 3.2832-.6336 2.7702-2.0592-.8208-2.0592-1.3338 0-3.2832-.8712-4.3092-1.9008-2.565-2.4552-5.5404-3.0888-9.1314-1.98-1.6416.4752-5.4378.9504-8.3106 1.188-4.3092.2376-5.4378.0792-5.4378-.8712 0-1.3464-2.565-1.584-3.591-.396-1.1286 1.4256-2.6676.792-3.7962-1.6632-.9234-2.0592-1.539-2.376-4.0014-2.1384-2.052.1584-4.104-.4752-6.3612-1.8216-1.7442-1.1088-4.104-2.2176-5.0274-2.5344-2.052-.5544-2.4624-2.5344-.8208-3.3264 1.539-.7128.1026-2.0592-1.8468-1.8216-1.026.0792-2.6676-.2376-3.8988-.792-1.2312-.4752-4.5144-.9504-7.2846-1.1088l-5.13-.2376-.1026-6.0192c0-6.2568-1.3338-9.108-4.5144-9.9-2.1546-.4752-2.4624-3.8016-.6156-8.3952 1.026-2.6928 1.539-3.0096 3.4884-2.6928 1.7442.396 2.4624 0 3.3858-1.7424.6156-1.188 1.539-2.772 2.1546-3.564 2.8728-3.8016 2.8728-4.0392-.8208-5.94-1.9494-1.0296-4.2066-1.6632-5.0274-1.4256-.7182.2376-1.6416-.0792-1.9494-.6336-.8208-1.6632-4.2066-2.0592-7.3872-.8712-4.104 1.584-11.4912 2.376-11.4912 1.2672 0-.5544-1.1286-1.8216-2.565-2.8512-2.8728-2.2176-10.1574-2.8512-11.0808-.8712-.3078.5544-2.052 1.2672-3.7962 1.4256-2.565.3168-3.7962-.0792-6.5664-2.2176-2.052-1.584-5.3352-3.0096-8.208-3.6432-2.7702-.5544-4.7196-1.4256-4.7196-2.0592s-1.3338-2.376-3.078-3.8808c-1.6416-1.4256-3.078-3.0096-3.078-3.4056 0-.4752-.9234-.792-2.052-.792s-2.052-.3168-2.052-.6336c0-.396-.6156-1.3464-1.4364-2.1384-1.2312-1.3464-1.4364-1.3464-3.6936 1.0296m36.2178 70.6464c11.0808 0 16.0056.2376 15.5952.8712-.4104.396-6.0534 3.8808-12.6198 7.6032-6.669 3.7224-12.2094 6.8904-12.4146 7.0488-.1026.0792 1.8468 5.148 4.4118 11.1672s4.7196 11.4048 4.7196 11.9592c0 .9504-2.2572-.1584-19.1862-9.4248l-7.3872-4.0392-13.0302 7.2864c-7.0794 3.96-13.1328 7.128-13.338 6.9696s1.7442-5.148 4.2066-11.0088c2.565-5.8608 4.617-11.2464 4.617-11.9592 0-.792-4.9248-4.1184-12.312-8.2368-6.7716-3.8016-12.312-7.2072-12.312-7.6032 0-.3168 7.2846-.7128 16.1082-.792l16.1082-.2376 4.9248-11.484c2.6676-6.336 4.9248-11.6424 5.0274-11.88 0-.2376 2.4624 5.0688 5.3352 11.6424l5.3352 12.1176h16.2108c-.7182.4752-5.643-1.6632-5.643-2.4552 4.7196 1.4256 5.8482 2.2176 5.643 2.4552M353.97 336.204c1.3338 1.1088 2.1546 1.98 1.8468 1.98-.2052 0-1.539-.8712-2.8728-1.98s-2.1546-1.98-1.8468-1.98c.2052 0 1.539.8712 2.8728 1.98m9.234 6.8112c0 .4752-1.2312.7128-2.7702.5544-2.1546-.1584-2.8728-.7128-2.9754-1.98-.1026-1.6632 0-1.6632 2.7702-.5544 1.6416.6336 2.9754 1.5048 2.9754 1.98m-2.2572-218.9088c.6156.1584 1.8468.1584 2.565 0 .6156-.2376.1026-.396-1.3338-.396s-1.9494.1584-1.2312.396m-24.3162 9.108c-1.2312 2.2176-1.9494 4.1976-1.7442 4.356.2052.2376 2.8728-1.0296 5.8482-2.6928 4.8222-2.6136 5.2326-3.0096 3.1806-3.2472-1.3338-.1584-2.6676-.792-2.9754-1.4256-.9234-1.98-2.052-1.188-4.3092 3.0096m3.6936 8.2368c-1.6416 1.6632-1.6416 1.9008-.2052 1.9008 1.6416 0 3.078-1.7424 2.3598-3.0888-.1026-.396-1.1286.1584-2.1546 1.188m-28.6254 5.6232c-1.026.1584-1.3338.4356-1.3338 1.4256-.342.7128 3.591 3.2472 5.3352 3.7224 2.1546.5544 3.078-1.8216 1.3338-3.6432-1.2312-1.3464-1.7442-1.4256-4.104-1.0692m9.4392 9.4248c0 .6336 1.026 1.1088 2.6676 1.1088 2.8728 0 2.565-1.188-.6156-1.8216-1.3338-.2376-2.052 0-2.052.7128M549.5256 330.66c-.8208 1.6632.1026 2.772 2.052 2.772 1.026 0 1.4364-.6336 1.2312-1.7424-.4104-2.1384-2.3598-2.6928-3.2832-1.0296m67.716 9.7416c-.2052.3168-.1026 1.1088.3078 1.6632.6156.792 1.026.7128 1.4364-.2376.6156-1.2672-.8208-2.5344-1.7442-1.4256m5.8482 1.9008c.2052.5544 1.026 1.0296 1.7442 1.0296s1.539-.4752 1.8468-1.0296c.2052-.5544-.513-.9504-1.8468-.9504s-2.052.396-1.7442.9504m62.2782 3.8016c-1.539-.396 0 .396-1.539-.792-1.539-2.772.513-.396.513-.792s-.513-.396 1.539 1.188m-3.078-.792s-1.026.4752-1.026 1.188c-.7182.7128-.1026.9504 1.6416.8712 1.3338 0 2.4624.7128.9234-.4752m44.118-.7128c0 .396.513.5544 1.1286.2376.8208-.3168.9234.0792.513 1.3464-.7182 1.8216-.6156 1.8216.8208.396.9234-.792 1.3338-1.8216 1.026-2.1384-.7182-1.0296-3.4884-.8712-3.4884.1584m-71.82 5.4648c-1.539 1.188-2.052 2.6136-2.052 6.0984 0 5.2272.6156 6.2568 4.617 7.8408 3.4884 1.4256 4.7196 1.4256 4.0014 0-.3078-.6336-.1026-1.3464.513-1.6632.6156-.2376 1.1286-3.0888 1.1286-6.336 0-4.9896-.3078-6.0192-1.9494-6.732-2.8728-1.1088-3.8988-1.0296-6.2586.792m4.9248 4.752c.4104 3.168-.513 6.336-1.8468 6.336-.6156 0-1.026-2.1384-1.026-4.8312 0-3.4848.3078-4.752 1.3338-4.5144.6156.2376 1.3338 1.5048 1.539 3.0096m19.8018-1.0296c-.6156 3.0096-1.4364 6.336-1.7442 7.524-.513 1.8216-.2052 2.2176 1.539 2.2176 1.2312 0 2.1546-.4752 2.1546-1.188 0-.6336.7182-1.188 1.539-1.188.9234 0 1.8468.5544 2.1546 1.188.4104.6336 1.2312 1.188 2.052 1.188 2.1546 0 1.9494-2.772-1.1286-13.3056-.4104-1.188-1.3338-1.7424-2.9754-1.7424-2.2572 0-2.565.4752-3.591 5.3064m4.9248 3.168c.1026.5544-.3078 1.0296-.9234 1.0296-.513 0-1.026-1.188-.9234-2.6136 0-2.1384.2052-2.2968.9234-.9504.513.8712.9234 2.0592.9234 2.5344m27.189-7.92c-1.2312.6336-1.8468 4.4352-1.539 10.692l.1026 3.8016h3.8988c2.1546 0 4.4118-.396 5.13-.9504 1.3338-1.0296 1.6416-10.7712.4104-12.276-1.026-1.2672-6.4638-2.0592-8.0028-1.2672M716.148 356.4c0 2.6136-.4104 4.752-.9234 4.752-.6156 0-.9234-2.1384-.9234-4.752s.513-4.752.9234-4.752c.513 0 .9234 2.1384.9234 4.752m8.8236-6.1776c-1.7442 6.336-2.6676 10.4544-2.6676 11.7216 0 1.8216 2.565 2.1384 3.4884.396.3078-.6336 1.2312-1.188 2.1546-1.188.8208 0 1.539.5544 1.539 1.188s.9234 1.188 2.052 1.188 2.052-.2376 2.052-.6336c0-1.2672-3.078-13.068-3.6936-13.7016-1.1286-1.4256-4.5144-.7128-4.9248 1.0296m3.078 7.6032c-1.1286.792-1.4364-.2376-.8208-2.6136l.7182-2.376.3078 2.2176c.2052 1.2672.1026 2.4552-.2052 2.772m9.3366-8.3952c-1.2312.792-1.7442 2.4552-1.9494 6.2568-.3078 5.7024.9234 7.8408 4.7196 7.8408 4.104 0 5.13-1.2672 5.5404-6.5736.4104-4.4352.1026-5.3856-1.7442-6.8112-2.4624-1.9008-4.104-2.0592-6.5664-.7128Zm4.4118 7.0488c0 3.4848-.3078 4.752-1.2312 4.5144-1.4364-.396-2.3598-7.128-1.4364-9.108 1.2312-2.4552 2.6676.0792 2.6676 4.5936M624.834 350.064c-1.1286.5544-1.2312.9504-.3078 1.6632 1.539 1.188 4.8222.5544 5.2326-1.1088.4104-1.5048-2.3598-1.8216-4.9248-.5544m40.014 4.5936c0 6.0192 1.7442 8.8704 5.4378 8.8704 3.8988 0 5.13-1.2672 5.643-5.8608.513-5.3064-.3078-8.3952-2.3598-8.3952-1.2312 0-1.539 1.188-1.539 5.94s-.3078 5.94-1.539 5.94-1.539-1.188-1.539-5.94c0-5.3856-.2052-5.94-2.052-5.94s-2.052.5544-2.052 5.3856m25.65 1.6632c0 6.6528.1026 7.2072 2.052 7.2072 1.7442 0 2.052-.5544 2.1546-3.8016l.1026-3.7224 1.539 3.7224c1.026 2.8512 1.9494 3.8016 3.4884 3.8016 1.7442 0 1.9494-.6336 1.9494-7.128 0-5.7816-.3078-7.128-1.539-7.128-1.1286 0-1.539.8712-1.539 3.3264 0 3.564-.9234 3.4848-2.6676-.396-.7182-1.6632-1.8468-2.6136-3.2832-2.772-2.1546-.2376-2.2572 0-2.2572 6.8904M633.555 351.7272c-.8208.9504 1.4364 2.4552 3.078 2.0592.6156-.1584 1.026-.792 1.026-1.4256 0-1.3464-3.1806-1.9008-4.104-.6336m5.643 16.3944c0 .9504 3.4884 3.3264 4.9248 3.3264 1.539 0 1.539-.4752.2052-2.4552-1.026-1.5048-5.13-2.1384-5.13-.8712m-70.281 3.4056c-.4104.4752-.513 1.0296-.2052 1.2672.7182.5544 2.7702-.4752 2.7702-1.4256s-1.7442-.9504-2.565.1584m24.8292 1.98c-.4104.3168-.7182 5.8608-.7182 12.3552V397.584h3.591H600.21v-5.148c0-4.5936.2052-5.148 2.052-5.148s2.052.5544 2.052 5.148v5.148h3.078 3.1806l-.3078-12.1176-.3078-12.0384-2.7702-.2376c-2.8728-.2376-2.8728-.2376-2.8728 4.5144 0 4.2768-.2052 4.8312-2.052 4.8312-1.6416 0-1.9494-.6336-2.2572-4.5936-.3078-4.1976-.513-4.5144-2.8728-4.752-1.4364-.1584-2.9754 0-3.3858.3168m23.085 1.1088c-2.052 1.5048-2.2572 2.376-2.2572 11.0088 0 7.92.3078 9.504 1.8468 10.6128 3.1806 2.1384 9.1314 2.0592 12.312-.3168 2.1546-1.5048 2.2572-2.2968 2.1546-10.692-.1026-8.712-.2052-9.108-2.6676-10.6128-3.3858-2.0592-8.5158-2.0592-11.3886 0m7.7976 10.9296c.3078 7.6824.2052 8.0784-1.8468 8.0784-1.9494 0-2.052-.4752-2.052-7.7616 0-4.2768.3078-8.0784.7182-8.3952 2.052-1.5048 2.8728.6336 3.1806 8.0784m14.1588-11.1672c-.9234 2.376-4.7196 19.8792-4.7196 21.6216 0 1.2672.6156 1.584 3.078 1.584 2.6676 0 3.078-.3168 3.078-2.0592 0-1.7424.4104-1.98 2.8728-1.7424 1.9494.1584 2.8728.7128 3.078 1.98.3078 1.4256 1.026 1.8216 3.3858 1.8216 3.591 0 3.591.2376.9234-12.1968-2.8728-12.9888-2.565-12.3552-7.182-12.3552-2.8728 0-4.104.396-4.5144 1.3464m5.7456 10.692c.3078 3.3264.1026 3.8016-1.6416 3.8016-1.539 0-1.7442-.396-1.2312-2.4552.3078-1.3464.6156-3.4056.6156-4.5144 0-3.4848 1.8468-.8712 2.2572 3.168m11.0808.1584V397.584h3.078 2.9754l.3078-6.9696.3078-6.8904 2.4624 6.8904c2.4624 6.9696 2.4624 6.9696 5.8482 6.9696 4.2066 0 4.4118-.4752 4.4118-11.484 0-11.88-.4104-13.2264-3.7962-12.9096-2.6676.2376-2.7702.396-3.1806 6.5736l-.3078 6.336-2.7702-6.336c-2.565-6.0984-2.7702-6.336-5.9508-6.5736l-3.3858-.2376v12.276m25.2396-10.5336c-2.565 1.584-2.6676 1.8216-2.6676 10.8504.1026 6.4152.513 9.6624 1.4364 10.6128 1.539 1.6632 6.7716 1.9008 8.6184.4752.9234-.7128 1.2312-.7128 1.2312 0 0 .5544 1.3338.9504 3.078.9504h3.078v-5.4648c0-7.3656-.4104-7.9992-5.2326-7.9992-3.7962 0-4.0014.1584-4.0014 2.376 0 1.2672.513 2.376 1.026 2.376.6156 0 1.026 1.0296 1.026 2.376 0 1.9008-.4104 2.376-2.052 2.376-2.052 0-2.1546-.396-1.8468-8.0784.3078-6.8112.6156-8.1576 1.9494-8.3952 1.1286-.1584 2.052.6336 2.7702 2.1384 1.2312 2.6928 3.2832 3.168 5.3352 1.2672 1.6416-1.5048-.3078-5.6232-3.1806-6.732-2.9754-1.2672-7.695-.8712-10.5678.8712m29.6514.3168c-4.2066 3.168-3.4884 6.0192 3.078 11.484 5.643 4.752 6.4638 7.128 2.4624 7.128-1.4364 0-1.9494-.5544-1.9494-1.98 0-1.6632-.513-1.98-3.078-1.98-2.7702 0-3.078.2376-3.078 2.376 0 2.6136 3.078 5.4648 5.9508 5.6232 4.617.2376 7.0794-.3168 9.234-2.1384 3.8988-3.4056 3.078-6.1776-3.4884-11.4048-3.7962-3.0096-5.5404-5.148-5.2326-5.94.9234-1.7424 2.6676-1.4256 4.0014.792.7182 1.2672 1.9494 1.98 3.591 1.98 2.052 0 2.3598-.396 2.3598-2.6928 0-5.148-8.8236-7.2072-13.851-3.2472m21.3408-1.0296c-.9234.9504-5.4378 19.3248-5.4378 22.2552 0 .9504.8208 1.3464 3.078 1.3464 2.6676 0 3.078-.3168 3.078-2.0592 0-1.7424.4104-1.98 2.8728-1.7424 1.9494.1584 2.8728.7128 3.078 1.98.513 2.4552 6.3612 2.6928 6.3612.2376 0-3.0888-4.4118-20.988-5.4378-22.0176-.513-.4752-2.2572-.9504-3.7962-.9504s-3.2832.4752-3.7962.9504m4.8222 9.2664c0 1.7424.3078 3.6432.6156 4.356.4104.9504 0 1.2672-1.6416 1.2672-1.8468 0-2.1546-.3168-1.6416-1.8216.3078-.9504.6156-2.9304.6156-4.356 0-1.3464.513-2.5344 1.026-2.5344.6156 0 1.026 1.4256 1.026 3.0888M573.534 377.388c.7182.6336 1.9494 1.188 2.6676 1.188.8208 0 1.4364-.5544 1.4364-1.188 0-.792-1.026-1.188-2.6676-1.188-2.2572 0-2.565.1584-1.4364 1.188m-3.591 12.276c-1.026 1.188-.2052 1.6632 3.1806 1.8216 2.052.0792 2.9754-.2376 2.9754-1.0296 0-1.4256-5.13-2.0592-6.156-.792m14.2614 2.4552c-1.026 1.3464 1.3338 2.8512 2.7702 1.7424 1.2312-.9504.4104-2.6136-1.1286-2.6136-.513 0-1.2312.396-1.6416.8712M576.612 404.316c-1.2312 2.5344-.6156 4.6728 1.3338 4.1976 1.6416-.4752 2.2572-4.5144.8208-5.6232-.7182-.5544-1.4364-.1584-2.1546 1.4256m74.385-.3168c-.7182.8712 2.2572 3.0096 4.3092 3.0888 1.9494 0 2.6676-1.5048 1.3338-2.772-1.4364-1.3464-4.7196-1.584-5.643-.3168m-6.669 1.2672c0 1.0296.513 1.8216 1.026 1.8216 1.3338 0 1.3338-.8712 0-2.376-.8208-.9504-1.026-.8712-1.026.5544M523.9782 423.4032c-1.9494 1.5048 1.9494 3.8808 4.8222 3.0096 2.052-.6336 2.1546-2.6928.2052-2.6928-.8208 0-2.1546-.1584-2.8728-.396-.8208-.2376-1.7442-.1584-2.1546.0792m-85.158 72.7056c-.4104.792-.1026 1.0296.9234.7128.9234-.2376 1.4364.1584 1.4364 1.188 0 .9504.4104 1.8216.9234 2.0592.9234.4752.7182-2.9304-.4104-4.1976-.9234-1.188-2.2572-1.1088-2.8728.2376m-1.7442 3.2472c0 .1584.9234.7128 2.052 1.188 1.6416.7128 1.8468.6336 1.4364-.396-.513-1.0296-3.4884-1.7424-3.4884-.792m-2.052 17.028c0 .396.513.792 1.026.792.6156 0 1.026-.396 1.026-.792 0-.4752-.4104-.792-1.026-.792-.513 0-1.026.3168-1.026.792m-32.2164 72.468c.4104.6336.8208 1.188 1.026 1.188s.4104-.5544.4104-1.188-.4104-1.188-1.026-1.188c-.513 0-.7182.5544-.4104 1.188m-250.6518 2.772c-1.026.8712-2.3598 1.584-3.078 1.584-1.9494 0-1.6416 2.1384.513 3.3264 8.0028 11.7216 8.208 11.088 7.7976 9.4248M555.579 605.88c.3078.396.8208.792 1.1286.792.9234.792.9234 0 .4104-.792 0-.4752-.513-.792-1.1286-.792-.513 0-.7182.3168-.4104.792m41.553.0792c0 .396.513.5544 1.1286.2376.8208-.3168.9234.0792.4104 1.2672s-.4104 1.584.4104 1.2672c1.6416-.8712 1.3338-3.6432-.4104-3.6432-.8208 0-1.539.396-1.539.8712m39.6036 1.3464c-.7182.8712.513 2.1384 3.2832 3.2472 1.8468.7128 2.6676.7128 4.3092-.1584 2.3598-1.2672 1.6416-2.1384-1.7442-2.1384-1.2312 0-2.3598-.396-2.3598-.792 0-.9504-2.7702-1.0296-3.4884-.1584m-85.0554.7128c-1.3338.9504-.7182 2.0592.6156 1.1088 1.026-.6336 1.7442-.5544 2.565.0792.9234.7128 1.2312.6336 1.2312-.396 0-1.3464-3.078-1.9008-4.4118-.792m-27.3942 4.1184c-1.1286 1.7424-1.3338 10.3752-.2052 11.5632.9234 1.0296 6.0534 3.564 7.182 3.564.9234 0 1.1286-.8712 1.8468-8.5536.4104-3.96.2052-6.1776-.6156-6.8904-1.8468-1.7424-6.8742-1.5048-8.208.3168m5.13 6.0192c0 2.9304-.4104 5.148-1.026 5.148s-1.026-2.2176-1.026-5.148.4104-5.148 1.026-5.148 1.026 2.2176 1.026 5.148m6.156-1.6632c0 4.5936.4104 6.2568 1.9494 7.6824 1.6416 1.584 2.3598 1.7424 4.8222 1.1088 2.9754-.792 2.9754-.9504 3.2832-7.7616.2052-5.7816 0-6.8904-1.3338-6.8904-1.2312 0-1.539 1.0296-1.539 5.0688 0 2.772-.3078 5.6232-.6156 6.336-1.3338 2.6928-2.4624.1584-2.4624-5.544 0-5.3064-.2052-5.8608-2.052-5.8608s-2.052.5544-2.052 5.8608m15.39-5.544c0 .1584-.7182 3.168-1.539 6.5736-1.9494 7.6824-1.9494 7.3656.513 7.3656 1.1286 0 2.052-.5544 2.052-1.188 0-1.7424 2.7702-1.4256 3.3858.396.3078.8712 1.3338 1.584 2.2572 1.584 1.9494 0 1.8468-2.2968-.513-10.9296-1.026-3.564-1.539-4.1184-3.6936-4.1184-1.3338 0-2.4624.1584-2.4624.3168m3.2832 6.4152c.2052 1.5048 0 2.772-.4104 2.772s-.8208-1.2672-.8208-2.772.2052-2.772.4104-2.772c.2052 0 .6156 1.2672.8208 2.772m6.9768.8712c0 5.7024.3078 7.524 1.3338 7.2864.6156-.2376 1.3338-1.584 1.539-3.0888.513-3.8016 1.9494-4.5144 3.2832-1.5048.4104 3.2472 1.7442 4.752 3.6936 4.752 1.1286 0 1.4364-1.6632 1.4364-7.6032 0-6.732-.2052-7.524-1.7442-7.2864-1.026.1584-1.8468.792-1.9494 1.4256-.4104 5.148-.513 5.2272-2.1546 1.7424-1.026-2.2968-2.052-3.3264-3.4884-3.3264-1.7442 0-1.9494.6336-1.9494 7.6032m19.2888-4.2768c-.3078 1.9008-.2052 5.148.1026 7.3656l.6156 3.96 4.0014-.0792c4.9248-.1584 5.7456-1.1088 5.7456-6.8904 0-6.2568-1.1286-7.6824-6.0534-7.6824-3.8988 0-3.8988.0792-4.4118 3.3264m6.3612 3.7224c0 2.6136-.4104 4.9104-.9234 5.2272-.6156.2376-.9234-1.7424-.9234-4.752.1026-2.8512.513-5.148 1.026-5.148.4104 0 .8208 2.1384.8208 4.6728m8.721-6.0984c-.7182 1.8216-2.565 10.3752-2.565 12.276 0 1.1088.6156 1.8216 1.539 1.8216.8208 0 1.539-.4752 1.539-1.1088 0-2.1384 2.2572-2.2968 4.2066-.396 3.1806 3.2472 3.8988.9504 2.1546-6.6528-1.4364-6.336-1.7442-6.8904-4.0014-6.8904-1.3338 0-2.6676.4752-2.8728.9504m3.591 6.5736c0 1.1088-.4104 1.98-1.026 1.98-.513 0-1.026-.8712-1.026-1.98s.513-1.98 1.026-1.98c.6156 0 1.026.8712 1.026 1.98m7.7976-6.2568c-1.1286.792-1.6416 2.6928-1.6416 5.7024 0 6.8112 3.6936 9.8208 8.6184 7.0488 1.4364-.792 1.8468-2.2176 1.8468-6.336 0-3.0888-.513-5.7816-1.2312-6.4944-1.6416-1.584-5.5404-1.5048-7.5924.0792m5.0274 6.0984c0 6.2568-1.9494 6.0984-2.3598-.1584-.2052-3.8016 0-4.9104 1.026-4.6728.9234.2376 1.3338 1.9008 1.3338 4.8312M630.5796 615.78c-1.1286.6336-2.8728 1.188-3.8988 1.188-2.4624 0-2.3598 1.3464.2052 2.376 1.6416.7128 2.7702.5544 5.2326-.8712 2.8728-1.584 3.4884-3.0888 1.3338-3.6432-.513-.0792-1.8468.3168-2.8728.9504M587.898 629.4024c.1026 1.2672 2.8728 3.4056 4.5144 3.4056 1.9494 0 2.052-.3168.6156-2.4552-1.026-1.4256-5.13-2.2176-5.13-.9504m-10.26 4.9896c-.6156.8712-2.052 1.584-3.078 1.584-1.9494 0-2.052.5544-2.052 8.6328 0 9.3456-.4104 11.1672-2.6676 11.1672-1.6416 0-1.6416-.3168-1.8468-11.484l-.1026-7.92-3.2832-.2376-3.3858-.2376v9.504c0 10.9296.9234 13.1472 5.7456 14.3352 4.3092 1.1088 6.8742.4752 9.6444-2.1384 1.7442-1.7424 2.052-3.168 2.052-10.0584 0-7.128.2052-8.1576 2.052-9.0288 2.8728-1.3464 2.8728-5.7024 0-5.7024-1.026 0-2.4624.7128-3.078 1.584m18.468 0c0 1.3464-.513 1.5048-2.565 1.1088-3.1806-.6336-7.0794.0792-9.1314 1.7424-2.565 1.9008-2.3598 19.404.2052 21.0672 4.4118 3.0888 11.1834 2.2968 13.4406-1.5048.7182-1.2672 1.1286-5.3856 1.026-10.296-.1026-4.5144.1026-8.4744.513-8.712.3078-.3168.6156-1.5048.6156-2.772 0-1.6632-.513-2.2176-2.052-2.2176-1.3338 0-2.052.5544-2.052 1.584m-3.2832 5.7024c.8208.6336 1.2312 3.564 1.2312 7.92 0 6.0192-.2052 7.0488-2.052 7.7616-2.8728 1.188-4.104-1.1088-4.104-7.92 0-7.3656 1.8468-10.1376 4.9248-7.7616m-64.638-4.356c-4.4118.3168-4.9248.5544-4.9248 2.2968 0 1.3464.513 1.9008 2.052 1.9008 1.9494 0 2.052.5544 2.052 9.9792v9.9l3.3858-.2376 3.2832-.2376.3078-9.7416c.2052-9.0288.4104-9.6624 2.2572-9.6624 1.539 0 2.052-.5544 2.052-1.98 0-1.188-.6156-1.98-1.4364-1.98s-2.052-.0792-2.8728-.2376c-.7182-.1584-3.4884-.1584-6.156 0m14.877.0792c-2.3598.2376-2.3598.4752-2.3598 12.1176V659.736H543.78c2.9754 0 2.9754-.0792 3.2832-4.9104.2052-3.96.6156-4.9896 2.1546-5.2272 1.3338-.2376 1.7442.3168 1.7442 2.4552 0 1.5048.3078 3.8808.6156 5.2272.6156 2.0592 1.1286 2.4552 3.591 2.4552 2.9754 0 2.9754 0 2.9754-4.9104 0-3.4056-.513-5.3064-1.7442-6.336-1.539-1.3464-1.539-1.5048 0-2.8512 2.2572-1.9008 2.2572-5.94 0-7.92-1.8468-1.584-8.4132-2.5344-13.338-1.9008m8.208 5.2272c.3078.6336.3078 1.9008 0 2.8512-.9234 2.6136-3.7962 1.6632-4.2066-1.4256-.3078-2.0592 0-2.5344 1.6416-2.5344 1.1286 0 2.2572.4752 2.565 1.1088m77.2578-4.1976c-2.565 1.584-2.6676 1.8216-2.6676 11.088 0 8.4744.2052 9.5832 2.1546 11.088 1.539 1.188 2.7702 1.5048 4.3092 1.1088 1.2312-.3168 4.0014-.5544 6.156-.4752l3.8988.1584-.3078-6.5736-.3078-6.5736h-3.7962c-3.591-.0792-3.8988.0792-3.8988 2.1384 0 1.188.513 2.2176 1.026 2.2176.6156 0 1.026 1.0296 1.026 2.376 0 1.9008-.4104 2.376-2.052 2.376-2.052 0-2.1546-.396-1.8468-8.1576.2052-6.5736.6156-8.0784 1.8468-8.0784.9234 0 1.6416.8712 1.8468 2.1384.3078 1.9008.8208 2.2176 3.3858 2.2176 2.6676 0 2.9754-.2376 2.9754-2.6136 0-3.0096-.7182-3.96-3.7962-5.2272-3.3858-1.3464-6.8742-1.0296-9.9522.792m30.6774-.7128c-2.9754 1.2672-3.591 2.2176-3.591 5.7024 0 2.6136.7182 3.564 5.13 6.9696 5.3352 4.1184 6.669 6.9696 3.078 6.9696-1.3338 0-2.2572-.7128-2.6676-1.98-.513-1.5048-1.3338-1.98-3.591-1.98s-2.9754.396-2.9754 1.584c0 6.8904 12.0042 9.504 16.929 3.6432 2.6676-3.0888 1.1286-6.4944-4.8222-10.8504-3.2832-2.376-4.9248-4.2768-4.7196-5.2272.513-2.0592 3.2832-1.7424 3.6936.3168.3078 1.4256 1.026 1.8216 3.3858 1.8216 2.565 0 2.9754-.3168 2.9754-2.2968 0-4.2768-7.4898-7.0488-12.825-4.6728m20.52.1584c-.8208.4752-2.3598 4.9104-3.4884 10.3752-1.2312 5.2272-2.3598 10.296-2.6676 11.3256-.513 1.6632-.3078 1.8216 2.7702 1.584 2.565-.1584 3.4884-.6336 3.6936-2.0592.513-2.5344 4.9248-2.4552 5.7456.2376.513 1.584 1.3338 1.98 3.6936 1.98 1.7442 0 3.078-.396 3.078-1.0296 0-.4752-1.1286-5.7816-2.565-11.6424s-2.565-10.7712-2.565-10.7712c-.1026-.6336-6.5664-.6336-7.695 0m4.5144 11.7216c.1026 2.1384-.3078 3.8016-.8208 3.8016-1.8468 0-2.1546-1.4256-1.539-6.0192.8208-5.3064 2.2572-3.96 2.3598 2.2176m-80.9514-.2376V659.736h2.4624c2.8728 0 3.591-1.584 3.7962-8.316l.1026-4.752 2.565 6.4944c2.6676 6.4944 2.6676 6.5736 6.0534 6.5736h3.4884v-11.88-11.88h-3.078-2.9754l-.3078 6.0984-.3078 6.1776-2.6676-5.94c-2.4624-5.6232-2.7702-5.94-5.8482-6.1776l-3.2832-.2376v11.88m-310.365 14.3352c-1.026.8712-1.3338 1.584-.7182 1.584s1.6416-.7128 2.2572-1.584c.6156-.8712.9234-1.584.7182-1.584s-1.2312.7128-2.2572 1.584m288.1008 3.7224c-.7182.1584-1.3338 1.188-1.3338 2.2176s-.4104 2.1384-1.026 2.376c-1.4364.7128-1.2312 1.98.3078 1.98 1.6416 0 6.8742-4.5936 6.8742-6.0192 0-1.1088-2.3598-1.3464-4.8222-.5544m45.8622 1.98c0 .4752.9234.9504 2.052 1.188s2.052.7128 2.052 1.1088.7182.7128 1.6416.7128 1.4364-.5544 1.2312-1.3464c-.3078-1.4256-6.9768-3.0096-6.9768-1.6632m-25.2396 5.0688c.8208 2.376 3.3858 5.0688 4.9248 5.0688.513 0 1.1286-.5544 1.539-1.188.6156-1.3464-1.9494-3.96-5.2326-5.3064-1.7442-.7128-1.8468-.5544-1.2312 1.4256m-35.7048-.0792c-.8208 1.7424 1.4364 5.148 3.4884 5.148 1.026 0 2.3598-.5544 3.078-1.188.7182-.7128.8208-1.188.2052-1.188-.513 0-1.3338-.8712-1.6416-1.98-.7182-2.2176-4.104-2.772-5.13-.792m55.8144 1.188c0 .8712.7182 1.584 1.539 1.584s1.539-.7128 1.539-1.584-.7182-1.584-1.539-1.584-1.539.7128-1.539 1.584m-69.768 3.0888c0 1.4256 2.6676 2.4552 3.8988 1.5048 1.9494-1.5048 1.4364-2.2176-1.3338-2.2176-1.4364 0-2.565.3168-2.565.7128m-14.364 14.0976c.1026 1.4256 2.2572 4.1976 3.3858 4.1976 1.2312 0 1.6416-2.6136.7182-4.0392-1.3338-1.9008-4.104-1.98-4.104-.1584m-27.702 1.0296c0 .9504 3.591 2.4552 4.5144 1.8216 1.539-1.188.4104-2.6136-1.9494-2.6136C511.0506 691.416 509.922 691.7328 509.922 692.208Za9.32 9.32 0 019.8-2M363 579c3 .57-11 18 2 56.53V758" />
</svg>